<?xml version="1.0" encoding="UTF-8"?> <svg xmlns="http://www.w3.org/2000/svg" width="220" height="36" viewBox="0 0 220 36" fill="none"><path d="M67.001 5.62233V18.0037C67.001 20.883 67.001 23.6184 64.6806 25.778C62.7953 27.6496 59.8948 28.2254 57.2844 28.2254C54.674 28.2254 51.7735 27.6496 49.8882 25.778C47.7129 23.6184 47.5679 20.883 47.5679 18.0037V5.62233H53.3688V17.2838C53.3688 20.1632 53.5138 23.3305 57.2844 23.3305C61.055 23.3305 61.2 20.1632 61.2 17.2838V5.62233H67.001Z" fill="#2F5EAB"></path><path d="M70.6265 27.6496V5.62233H78.8928C82.8084 5.62233 85.4188 7.20599 85.4188 11.3811C85.4188 15.5562 84.8387 14.9803 82.9534 15.8441C86.1439 16.276 87.4491 18.4356 87.4491 21.4589C87.4491 26.0659 83.5335 27.6496 79.4729 27.6496H70.6265ZM76.4274 14.2605H77.0075C78.6027 14.2605 80.198 13.9725 80.198 12.1009C80.198 10.2293 78.4577 9.9414 76.8625 9.9414H76.4274V14.2605ZM76.4274 23.3305H77.1525C78.8928 23.3305 81.7932 23.3305 81.7932 21.027C81.7932 18.7235 78.8928 18.5795 77.0075 18.5795H76.4274V23.3305Z" fill="#2F5EAB"></path><path d="M90.4946 27.6496V5.62233H98.7609C102.677 5.62233 105.287 7.20599 105.287 11.3811C105.287 15.5562 104.707 14.9803 102.822 15.8441C106.012 16.276 107.317 18.4356 107.317 21.4589C107.317 26.0659 103.402 27.6496 99.341 27.6496H90.4946ZM96.2956 14.2605H96.8756C98.4709 14.2605 100.066 13.9725 100.066 12.1009C100.066 10.2293 98.3259 9.9414 96.7306 9.9414H96.2956V14.2605ZM96.2956 23.3305H97.0207C98.7609 23.3305 101.661 23.3305 101.661 21.027C101.661 18.7235 98.7609 18.5795 96.8756 18.5795H96.2956V23.3305Z" fill="#2F5EAB"></path><path d="M116.164 22.8986H123.125V27.7935H110.508V5.62233H116.309V22.7546L116.164 22.8986Z" fill="#2F5EAB"></path><path d="M130.811 10.5173V14.2605H137.337V19.1554H130.811V22.8986H137.627V27.7935H125.01V5.62233H137.627V10.5173H130.811Z" fill="#2F5EAB"></path><path d="M155.32 14.1165V5.62233H161.121V27.6496H155.32V18.5795H147.054V27.6496H141.253V5.62233H147.054V14.1165H155.32Z" fill="#2F5EAB"></path><path d="M188.24 16.276C188.24 23.3305 183.165 28.3694 175.913 28.3694C168.662 28.3694 163.586 23.3305 163.586 16.276C163.586 9.22155 169.532 4.90248 175.913 4.90248C182.294 4.90248 188.24 9.50949 188.24 16.276ZM169.677 16.276C169.677 20.0192 172.433 22.8986 175.913 22.8986C179.394 22.8986 182.149 20.1632 182.149 16.276C182.149 12.3889 179.394 10.5173 175.913 10.5173C172.433 10.5173 169.677 13.2527 169.677 16.276Z" fill="#2F5EAB"></path><path d="M190.416 5.62233H197.522L200.857 11.3811L204.193 5.62233H211.299L204.193 15.8441L212.459 27.6496H205.498L200.857 20.4511L195.781 27.6496H188.82L197.522 15.8441L190.416 5.62233Z" fill="#2F5EAB"></path><path d="M38.1415 5.62233V14.1165H29.8751V5.62233H24.0742V11.957L29.005 16.8519L24.0742 21.6029V27.6496H29.8751V18.7235H38.1415V27.6496H43.9424V5.62233H38.1415Z" fill="#2F5EAB"></path><path d="M24.6384 14.1292L21.8696 16.8778L24.6384 19.6265L27.4072 16.8778L24.6384 14.1292Z" fill="#D4DD25"></path><path d="M21.9016 11.3938L19.1328 14.1424L21.9016 16.8911L24.6703 14.1424L21.9016 11.3938Z" fill="#BED330"></path><path d="M19.0202 8.65839L16.2515 11.407L19.0202 14.1557L21.789 11.407L19.0202 8.65839Z" fill="#F8C015"></path><path d="M16.2834 5.92298L13.5146 8.67162L16.2834 11.4203L19.0522 8.67162L16.2834 5.92298Z" fill="#E96824"></path><path d="M13.5471 3.33155L10.7783 6.08018L13.5471 8.82882L16.3158 6.08018L13.5471 3.33155Z" fill="#E41E26"></path><path d="M13.6589 25.0382L10.8901 27.7868L13.6589 30.5355L16.4277 27.7868L13.6589 25.0382Z" fill="#027E40"></path><path d="M16.2693 22.1775L13.5005 24.9261L16.2693 27.6748L19.038 24.9261L16.2693 22.1775Z" fill="#06AA56"></path><path d="M19.0251 19.4608L16.2563 22.2094L19.0251 24.9581L21.7939 22.2094L19.0251 19.4608Z" fill="#3AAE49"></path><path d="M21.7805 16.7441L19.0117 19.4927L21.7805 22.2414L24.5492 19.4927L21.7805 16.7441Z" fill="#71B944"></path><path d="M13.5329 19.5861L10.7642 22.3347L13.5329 25.0833L16.3017 22.3347L13.5329 19.5861Z" fill="#2B2C6C"></path><path d="M16.2883 16.7254L13.5195 19.474L16.2883 22.2227L19.0571 19.474L16.2883 16.7254Z" fill="#3C3D94"></path><path d="M19.1462 14.1105L16.3774 16.8591L19.1462 19.6078L21.915 16.8591L19.1462 14.1105Z" fill="#743E94"></path><path d="M13.528 8.78365L10.7593 11.5323L13.528 14.2809L16.2968 11.5323L13.528 8.78365Z" fill="#C81D5C"></path><path d="M16.4099 11.3751L13.6411 14.1237L16.4099 16.8724L19.1786 14.1237L16.4099 11.3751Z" fill="#E41A54"></path><path d="M13.654 14.2358L10.8853 16.9844L13.654 19.733L16.4228 16.9844L13.654 14.2358Z" fill="#373089"></path><path d="M6.58561 10.8359L4.43213 12.9737L6.58561 15.1116L8.73909 12.9737L6.58561 10.8359Z" fill="#F8C015"></path><path d="M7.42253 17.3554L5.1665 19.5951L7.42253 21.8347L9.67856 19.5951L7.42253 17.3554Z" fill="#3AAE49"></path><path d="M1.89955 13.3942L0.0537109 15.2266L1.89955 17.059L3.7454 15.2266L1.89955 13.3942Z" fill="#E96824"></path><path d="M142.268 34.8483H143.573V35.856H141.107V31.537H142.268V34.8483Z" fill="#6E6F72"></path><path d="M145.168 32.4008V33.1206H146.473V34.1284H145.168V34.8483H146.473V35.856H144.008V31.537H146.473V32.5448H145.168V32.4008Z" fill="#6E6F72"></path><path d="M148.213 34.9922L147.923 35.7121H146.763L148.358 31.393H149.519L151.114 35.7121H149.954L149.664 34.9922H148.068H148.213ZM149.084 32.8327L148.648 34.1284H149.519L149.084 32.8327Z" fill="#6E6F72"></path><path d="M155.175 35.856H153.725L152.71 34.2724V35.856H151.549V31.537H153.29C154.16 31.537 154.74 31.9689 154.74 32.8327C154.74 33.6965 154.45 33.9844 153.87 33.9844L155.175 35.7121V35.856ZM152.71 33.4086C153.145 33.4086 153.435 33.4086 153.435 32.8327C153.435 32.2568 153 32.2568 152.71 32.2568V33.2646V33.4086Z" fill="#6E6F72"></path><path d="M155.465 31.537H156.625L158.655 34.1284V31.537H159.816V35.856H158.655L156.625 33.2646V35.856H155.465V31.537Z" fill="#6E6F72"></path><path d="M169.387 32.4008V33.1206H170.692V34.1284H169.387V34.8483H170.692V35.856H168.227V31.537H170.692V32.5448H169.387V32.4008Z" fill="#6E6F72"></path><path d="M172.577 34.9922L172.287 35.7121H171.127L172.722 31.393H173.882L175.478 35.7121H174.317L174.027 34.9922H172.432H172.577ZM173.302 32.8327L172.867 34.1284H173.737L173.302 32.8327Z" fill="#6E6F72"></path><path d="M179.538 35.856H178.088L177.073 34.2724V35.856H175.913V31.537H177.653C178.523 31.537 179.103 31.9689 179.103 32.8327C179.103 33.6965 178.813 33.9844 178.233 33.9844L179.538 35.7121V35.856ZM177.073 33.4086C177.508 33.4086 177.798 33.4086 177.798 32.8327C177.798 32.2568 177.363 32.2568 177.073 32.2568V33.2646V33.4086Z" fill="#6E6F72"></path><path d="M179.829 31.537H180.989L183.019 34.1284V31.537H184.179V35.856H183.019L180.989 33.2646V35.856H179.829V31.537Z" fill="#6E6F72"></path><path d="M196.942 33.4086C196.942 33.9844 196.942 34.5603 196.506 35.1362C196.071 35.7121 195.491 36 194.766 36C193.461 36 192.446 35.1362 192.446 33.6965C192.446 32.2568 193.461 31.393 194.766 31.393C196.071 31.393 196.361 31.8249 196.651 32.5448L195.636 32.9767C195.491 32.5448 195.201 32.2568 194.766 32.2568C194.041 32.2568 193.606 32.9767 193.606 33.5525C193.606 34.1284 194.041 34.8483 194.766 34.8483C195.491 34.8483 195.636 34.5603 195.636 34.1284H194.766V33.2646H196.942V33.4086Z" fill="#6E6F72"></path><path d="M201.002 35.856H199.552L198.537 34.2724V35.856H197.376V31.537H199.117C199.987 31.537 200.567 31.9689 200.567 32.8327C200.567 33.6965 200.277 33.9844 199.697 33.9844L201.002 35.7121V35.856ZM198.537 33.4086C198.972 33.4086 199.262 33.4086 199.262 32.8327C199.262 32.2568 198.827 32.2568 198.537 32.2568V33.2646V33.4086Z" fill="#6E6F72"></path><path d="M205.788 33.5525C205.788 34.9922 204.773 35.856 203.467 35.856C202.162 35.856 201.147 34.8483 201.147 33.5525C201.147 32.2568 202.307 31.393 203.467 31.393C204.628 31.393 205.788 32.2568 205.788 33.5525ZM202.162 33.5525C202.162 34.2724 202.742 34.8483 203.322 34.8483C203.902 34.8483 204.483 34.2724 204.483 33.5525C204.483 32.8327 203.902 32.4008 203.322 32.4008C202.742 32.4008 202.162 32.9767 202.162 33.5525Z" fill="#6E6F72"></path><path d="M207.818 34.2724L208.689 31.537H209.559L210.429 34.2724L211.299 31.537H212.459L211.154 35.856H209.994L209.269 33.4086L208.398 35.856H207.238L205.933 31.537H207.093L207.818 34.2724Z" fill="#6E6F72"></path><path d="M165.036 33.5525C165.036 34.1284 164.601 34.5603 164.021 34.5603C163.441 34.5603 163.006 34.1284 163.006 33.5525C163.006 32.9767 163.441 32.5448 164.021 32.5448C164.601 32.5448 165.036 32.9767 165.036 33.5525Z" fill="#6E6F72"></path><path d="M189.11 33.5525C189.11 34.1284 188.675 34.5603 188.095 34.5603C187.515 34.5603 187.08 34.1284 187.08 33.5525C187.08 32.9767 187.515 32.5448 188.095 32.5448C188.675 32.5448 189.11 32.9767 189.11 33.5525Z" fill="#6E6F72"></path><path d="M216.81 0.151749C217.39 0.151749 217.825 0.151749 218.405 0.583655C218.84 0.871593 219.275 1.3035 219.565 1.73541C219.855 2.16731 220 2.74319 220 3.31906C220 3.89494 220 4.32685 219.565 4.90272C219.275 5.33463 218.84 5.76653 218.405 6.05447C217.97 6.34241 217.39 6.48638 216.81 6.48638C216.23 6.48638 215.794 6.48638 215.214 6.05447C214.779 5.76653 214.344 5.33463 214.054 4.90272C213.764 4.47081 213.619 3.89494 213.619 3.31906C213.619 2.74319 213.619 2.31128 214.054 1.73541C214.344 1.3035 214.779 0.871593 215.214 0.583655C215.649 0.295718 216.23 0.151749 216.81 0.151749ZM216.81 0.583655C216.375 0.583655 215.94 0.583655 215.504 0.871593C215.069 1.15953 214.779 1.44747 214.489 1.87937C214.199 2.31128 214.199 2.74319 214.199 3.17509C214.199 3.607 214.199 4.03891 214.489 4.47081C214.779 4.90272 215.069 5.19066 215.504 5.4786C215.94 5.76653 216.375 5.76653 216.81 5.76653C217.245 5.76653 217.68 5.76653 218.115 5.4786C218.55 5.19066 218.84 4.90272 219.13 4.47081C219.42 4.03891 219.42 3.607 219.42 3.17509C219.42 2.74319 219.42 2.31128 219.13 1.87937C218.84 1.44747 218.55 1.15953 218.115 0.871593C217.68 0.583655 217.245 0.583655 216.81 0.583655ZM215.504 4.90272V1.59144H216.665C217.1 1.59144 217.39 1.59144 217.535 1.59144C217.68 1.59144 217.825 1.73541 217.97 1.87937C218.115 2.02334 218.115 2.16731 218.115 2.31128C218.115 2.45525 218.115 2.74319 217.825 2.88716C217.68 3.03113 217.39 3.17509 217.1 3.17509C217.1 3.17509 217.245 3.17509 217.39 3.31906C217.39 3.31906 217.68 3.607 217.825 4.03891L218.26 4.75875H217.535L217.245 4.18288C216.955 3.75097 216.81 3.46303 216.665 3.46303C216.665 3.46303 216.375 3.46303 216.23 3.46303H215.939V4.90272H215.359H215.504ZM216.085 3.03113H216.81C217.1 3.03113 217.39 3.03113 217.39 3.03113C217.39 3.03113 217.535 2.74319 217.535 2.59922C217.535 2.45525 217.535 2.45525 217.535 2.31128C217.535 2.31128 217.535 2.31128 217.245 2.16731C216.955 2.02334 216.955 2.16731 216.665 2.16731H216.085V3.17509V3.03113Z" fill="#231F20"></path></svg> 