<svg width="56" height="32" viewBox="0 0 56 32" fill="none" xmlns="http://www.w3.org/2000/svg">
<g clip-path="url(#clip0_1025_26932)">
<rect width="56" height="32" rx="16" fill="#3F41D1"/>
<path d="M37.2502 22.4701L35.6002 22.8601C35.2302 22.9501 34.9402 23.2301 34.8602 23.6001L34.5102 25.0701C34.3202 25.8701 33.3002 26.1201 32.7702 25.4901L29.7802 22.0501C29.5402 21.7701 29.6702 21.3301 30.0302 21.2401C31.8002 20.8101 33.3902 19.8201 34.5602 18.4101C34.7502 18.1801 35.0902 18.1501 35.3002 18.3601L37.5202 20.5801C38.2802 21.3401 38.0102 22.2901 37.2502 22.4701Z" fill="white"/>
<path d="M18.6992 22.4701L20.3492 22.8601C20.7192 22.9501 21.0092 23.2301 21.0892 23.6001L21.4392 25.0701C21.6292 25.8701 22.6492 26.1201 23.1792 25.4901L26.1692 22.0501C26.4092 21.7701 26.2792 21.3301 25.9192 21.2401C24.1492 20.8101 22.5592 19.8201 21.3892 18.4101C21.1992 18.1801 20.8592 18.1501 20.6492 18.3601L18.4292 20.5801C17.6692 21.3401 17.9392 22.2901 18.6992 22.4701Z" fill="white"/>
<path d="M28 6C24.13 6 21 9.13 21 13C21 14.45 21.43 15.78 22.17 16.89C23.25 18.49 24.96 19.62 26.95 19.91C27.29 19.97 27.64 20 28 20C28.36 20 28.71 19.97 29.05 19.91C31.04 19.62 32.75 18.49 33.83 16.89C34.57 15.78 35 14.45 35 13C35 9.13 31.87 6 28 6ZM31.06 12.78L30.23 13.61C30.09 13.75 30.01 14.02 30.06 14.22L30.3 15.25C30.49 16.06 30.06 16.38 29.34 15.95L28.34 15.36C28.16 15.25 27.86 15.25 27.68 15.36L26.68 15.95C25.96 16.37 25.53 16.06 25.72 15.25L25.96 14.22C26 14.03 25.93 13.75 25.79 13.61L24.94 12.78C24.45 12.29 24.61 11.8 25.29 11.69L26.36 11.51C26.54 11.48 26.75 11.32 26.83 11.16L27.42 9.98C27.74 9.34 28.26 9.34 28.58 9.98L29.17 11.16C29.25 11.32 29.46 11.48 29.65 11.51L30.72 11.69C31.39 11.8 31.55 12.29 31.06 12.78Z" fill="white"/>
</g>
<defs>
<clipPath id="clip0_1025_26932">
<rect width="56" height="32" rx="16" fill="white"/>
</clipPath>
</defs>
</svg>
