<svg width="56" height="32" viewBox="0 0 56 32" fill="none" xmlns="http://www.w3.org/2000/svg">
<g clip-path="url(#clip0_1025_14612)">
<path d="M35 13C35 14.45 34.57 15.78 33.83 16.89C32.75 18.49 31.04 19.62 29.05 19.91C28.71 19.97 28.36 20 28 20C27.64 20 27.29 19.97 26.95 19.91C24.96 19.62 23.25 18.49 22.17 16.89C21.43 15.78 21 14.45 21 13C21 9.13 24.13 6 28 6C31.87 6 35 9.13 35 13Z" stroke="#666666" stroke-width="1.5" stroke-linecap="round" stroke-linejoin="round"/>
<path d="M37.2491 22.4699L35.5991 22.8599C35.2291 22.9499 34.9391 23.2299 34.8591 23.5999L34.5091 25.0699C34.3191 25.8699 33.2991 26.1099 32.7691 25.4799L27.9991 19.9999L23.2291 25.4899C22.6991 26.1199 21.6791 25.8799 21.4891 25.0799L21.1391 23.6099C21.0491 23.2399 20.7591 22.9499 20.3991 22.8699L18.7491 22.4799C17.9891 22.2999 17.7191 21.3499 18.2691 20.7999L22.1691 16.8999C23.2491 18.4999 24.9591 19.6299 26.9491 19.9199C27.2891 19.9799 27.6391 20.0099 27.9991 20.0099C28.3591 20.0099 28.7091 19.9799 29.0491 19.9199C31.0391 19.6299 32.7491 18.4999 33.8291 16.8999L37.7291 20.7999C38.2791 21.3399 38.0091 22.2899 37.2491 22.4699Z" stroke="#666666" stroke-width="1.5" stroke-linecap="round" stroke-linejoin="round"/>
<path d="M28.58 9.98L29.17 11.16C29.25 11.32 29.46 11.48 29.65 11.51L30.72 11.69C31.4 11.8 31.56 12.3 31.07 12.79L30.24 13.62C30.1 13.76 30.02 14.03 30.07 14.23L30.31 15.26C30.5 16.07 30.07 16.39 29.35 15.96L28.35 15.37C28.17 15.26 27.87 15.26 27.69 15.37L26.69 15.96C25.97 16.38 25.54 16.07 25.73 15.26L25.97 14.23C26.01 14.04 25.94 13.76 25.8 13.62L24.97 12.79C24.48 12.3 24.64 11.81 25.32 11.69L26.39 11.51C26.57 11.48 26.78 11.32 26.86 11.16L27.45 9.98C27.74 9.34 28.26 9.34 28.58 9.98Z" stroke="#666666" stroke-width="1.5" stroke-linecap="round" stroke-linejoin="round"/>
</g>
<defs>
<clipPath id="clip0_1025_14612">
<rect width="56" height="32" rx="16" fill="white"/>
</clipPath>
</defs>
</svg>
