<svg width="56" height="32" viewBox="0 0 56 32" fill="none" xmlns="http://www.w3.org/2000/svg">
<g clip-path="url(#clip0_1025_7589)">
<rect width="56" height="32" rx="16" fill="#3F41D1"/>
<path d="M27.2393 6.26953H28.7588C30.5543 6.26953 31.2892 6.76247 31.6289 7.29004C32.0049 7.8741 32.0195 8.65437 32.0195 9.5293V10.0693H32.7588C34.7597 10.0693 36.0065 10.5282 36.7178 11.3145C37.5056 12.1861 37.5485 13.3708 37.4707 14.3623C37.4655 14.403 37.4629 14.4376 37.4609 14.46C37.4584 14.489 37.4575 14.4993 37.4561 14.5078L37.4531 14.5215L37.4521 14.5371L37.4023 15.0039L37.3867 15.1436C37.0205 15.4077 36.6268 15.6725 36.2529 15.8838L36.2422 15.8906C36.2236 15.9018 36.2066 15.9125 36.1934 15.9209C36.1783 15.9306 36.1713 15.935 36.1611 15.9414C36.1446 15.9518 36.1344 15.9572 36.125 15.9619L36.1113 15.9697L36.0967 15.9775C34.3696 16.9866 32.4582 17.676 30.4795 17.9961L30.0889 18.0596L30.0605 18.4531C30.0292 18.8873 29.9219 19.2608 29.6543 19.5312C29.3912 19.7969 28.8863 20.0498 27.8691 20.0498C26.8537 20.0498 26.3541 19.795 26.0928 19.5303C25.8249 19.259 25.7176 18.8882 25.6768 18.4619L25.6396 18.0781L25.2588 18.0156C23.5185 17.7331 21.8056 17.1776 20.2324 16.3584L19.9199 16.1914L19.9141 16.1885L19.6992 16.0723C19.6322 16.0348 19.5697 15.9975 19.5098 15.959L19.4961 15.9502L19.4814 15.9424C19.26 15.8193 18.8756 15.572 18.6328 15.4131L18.5566 14.6025L18.5557 14.5908L18.5537 14.5791L18.5459 14.5215C18.4476 13.5216 18.4485 12.2481 19.2793 11.3242L19.2803 11.3252C19.9917 10.5385 21.2284 10.0791 23.2393 10.0791H23.9795V9.5293C23.9795 8.65978 23.9938 7.87948 24.3701 7.29395C24.7101 6.76492 25.4446 6.26953 27.2393 6.26953ZM26.1289 17.8398C26.1289 18.0832 26.1278 18.3211 26.1514 18.5186C26.1753 18.7187 26.2321 18.9579 26.4072 19.1572C26.5864 19.3611 26.8243 19.4507 27.0518 19.4951C27.2753 19.5387 27.5478 19.5498 27.8594 19.5498C28.1684 19.5498 28.4388 19.5404 28.6602 19.5C28.8847 19.459 29.1262 19.3744 29.3086 19.1699C29.4871 18.9697 29.5428 18.7269 29.5664 18.5254C29.5898 18.3256 29.5889 18.0825 29.5889 17.8291V16.0791H26.1289V17.8398ZM27.2393 6.69922C26.6416 6.69922 26.1546 6.73916 25.7656 6.84082C25.3682 6.94469 25.0404 7.12228 24.8076 7.41797C24.5808 7.70608 24.4906 8.04869 24.4492 8.3877C24.4083 8.72252 24.4092 9.11472 24.4092 9.5293V10.0791H31.5889V9.5293C31.5889 9.11717 31.5897 8.726 31.5488 8.3916C31.5074 8.05303 31.4176 7.71023 31.1914 7.42188C30.9592 7.1259 30.6313 6.9477 30.2334 6.84277C29.844 6.74011 29.3568 6.69922 28.7588 6.69922H27.2393Z" fill="white" stroke="white"/>
<path d="M36.8733 17.7349C37.2269 17.5666 37.6342 17.8469 37.5988 18.2369L37.2398 22.1907C37.0298 24.1907 36.2098 26.2307 31.8098 26.2307H24.1898C19.7898 26.2307 18.9698 24.1907 18.7598 22.2007L18.4191 18.4529C18.3841 18.0674 18.782 17.7874 19.1347 17.947C20.2741 18.4625 22.3772 19.3771 23.6764 19.7174C23.8407 19.7604 23.9736 19.878 24.0456 20.0319C24.6525 21.33 25.969 22.0207 27.8698 22.0207C29.752 22.0207 31.085 21.3034 31.694 20.0021C31.766 19.8481 31.8991 19.7305 32.0635 19.6873C33.443 19.3243 35.6816 18.3019 36.8733 17.7349Z" fill="white"/>
</g>
<defs>
<clipPath id="clip0_1025_7589">
<rect width="56" height="32" rx="16" fill="white"/>
</clipPath>
</defs>
</svg>
