<svg width="56" height="32" viewBox="0 0 56 32" fill="none" xmlns="http://www.w3.org/2000/svg">
<g clip-path="url(#clip0_1025_49705)">
<rect width="56" height="32" rx="16" fill="#3F41D1"/>
<path d="M31.2305 6.5H35.2695C36.0209 6.5 36.4196 6.64547 36.6387 6.85156C36.8501 7.05042 36.9999 7.40644 37 8.09961V14.9004C36.9999 15.5936 36.8501 15.9496 36.6387 16.1484C36.4196 16.3545 36.0209 16.5 35.2695 16.5H31.2305C30.4791 16.5 30.0804 16.3545 29.8613 16.1484C29.6499 15.9496 29.5001 15.5936 29.5 14.9004V8.09961C29.5001 7.40644 29.6499 7.05042 29.8613 6.85156C30.0804 6.64547 30.4791 6.5 31.2305 6.5Z" fill="white" stroke="white"/>
<path d="M20.7305 15.5H24.7695C25.5209 15.5 25.9196 15.6455 26.1387 15.8516C26.3501 16.0504 26.4999 16.4064 26.5 17.0996V23.9004C26.4999 24.5936 26.3501 24.9496 26.1387 25.1484C25.9196 25.3545 25.5209 25.5 24.7695 25.5H20.7305C19.9791 25.5 19.5804 25.3545 19.3613 25.1484C19.1499 24.9496 19.0001 24.5936 19 23.9004V17.0996C19.0001 16.4064 19.1499 16.0504 19.3613 15.8516C19.5804 15.6455 19.9791 15.5 20.7305 15.5Z" fill="white" stroke="white"/>
<path d="M37.5 23.9V21.1C37.5 19.6 36.86 19 35.27 19H31.23C29.64 19 29 19.6 29 21.1V23.9C29 25.4 29.64 26 31.23 26H35.27C36.86 26 37.5 25.4 37.5 23.9Z" fill="white"/>
<path d="M27 10.9V8.1C27 6.6 26.36 6 24.77 6H20.73C19.14 6 18.5 6.6 18.5 8.1V10.9C18.5 12.4 19.14 13 20.73 13H24.77C26.36 13 27 12.4 27 10.9Z" fill="white"/>
</g>
<defs>
<clipPath id="clip0_1025_49705">
<rect width="56" height="32" rx="16" fill="white"/>
</clipPath>
</defs>
</svg>
