<svg width="52" height="28" viewBox="0 0 52 28" fill="none" xmlns="http://www.w3.org/2000/svg">
<g clip-path="url(#clip0_1025_26921)">
<path d="M34.3333 13.0834V7.41675C34.3333 6.16675 33.8 5.66675 32.475 5.66675H29.1083C27.7833 5.66675 27.25 6.16675 27.25 7.41675V13.0834C27.25 14.3334 27.7833 14.8334 29.1083 14.8334H32.475C33.8 14.8334 34.3333 14.3334 34.3333 13.0834Z" stroke="#666666" stroke-width="1.5" stroke-linecap="round" stroke-linejoin="round"/>
<path d="M34.3333 20.5833V19.0833C34.3333 17.8333 33.8 17.3333 32.475 17.3333H29.1083C27.7833 17.3333 27.25 17.8333 27.25 19.0833V20.5833C27.25 21.8333 27.7833 22.3333 29.1083 22.3333H32.475C33.8 22.3333 34.3333 21.8333 34.3333 20.5833Z" stroke="#666666" stroke-width="1.5" stroke-linecap="round" stroke-linejoin="round"/>
<path d="M24.7493 14.9167V20.5834C24.7493 21.8334 24.216 22.3334 22.891 22.3334H19.5243C18.1993 22.3334 17.666 21.8334 17.666 20.5834V14.9167C17.666 13.6667 18.1993 13.1667 19.5243 13.1667H22.891C24.216 13.1667 24.7493 13.6667 24.7493 14.9167Z" stroke="#666666" stroke-width="1.5" stroke-linecap="round" stroke-linejoin="round"/>
<path d="M24.7493 7.41675V8.91675C24.7493 10.1667 24.216 10.6667 22.891 10.6667H19.5243C18.1993 10.6667 17.666 10.1667 17.666 8.91675V7.41675C17.666 6.16675 18.1993 5.66675 19.5243 5.66675H22.891C24.216 5.66675 24.7493 6.16675 24.7493 7.41675Z" stroke="#666666" stroke-width="1.5" stroke-linecap="round" stroke-linejoin="round"/>
</g>
<defs>
<clipPath id="clip0_1025_26921">
<rect width="52" height="28" rx="14" fill="white"/>
</clipPath>
</defs>
</svg>
