<svg width="56" height="32" viewBox="0 0 56 32" fill="none" xmlns="http://www.w3.org/2000/svg">
<g clip-path="url(#clip0_1025_2658)">
<rect width="56" height="32" rx="16" fill="#3F41D1"/>
<path d="M26.25 6.5H29.75C30.2319 6.5 30.6661 6.69348 30.9863 7.01367C31.3065 7.33387 31.5 7.76811 31.5 8.25C31.5 9.21386 30.7139 10 29.75 10H26.25C25.7681 10 25.3339 9.80652 25.0137 9.48633C24.6935 9.16613 24.5 8.73189 24.5 8.25C24.5 7.28614 25.2861 6.5 26.25 6.5Z" fill="white" stroke="white"/>
<path d="M33.9229 9.06494C34.1389 9.15474 34.3373 9.2714 34.5117 9.41553L34.5127 9.4165C35.0771 9.87904 35.5 10.7101 35.5 12.2505V22.0005C35.4999 23.3979 35.0868 24.2415 34.502 24.7466C33.9033 25.2636 33.0398 25.5005 32 25.5005H24C22.9602 25.5005 22.0967 25.2636 21.498 24.7466C20.9132 24.2415 20.5001 23.3979 20.5 22.0005V12.2505C20.5 11.2423 20.6827 10.5381 20.9639 10.0464C21.2315 9.57853 21.6067 9.27102 22.0732 9.07275L22.0752 9.07471L22.0898 9.10791C22.2499 9.91872 22.6594 10.6666 23.2461 11.2534C24.0495 12.0568 25.1169 12.5005 26.25 12.5005H29.75C31.748 12.5005 33.4171 11.1277 33.8701 9.27783L33.9102 9.09814C33.9124 9.08708 33.9164 9.07521 33.9229 9.06494ZM24 19.7505C23.3139 19.7505 22.75 20.3143 22.75 21.0005C22.7502 21.6865 23.314 22.2505 24 22.2505H32C32.686 22.2505 33.2498 21.6865 33.25 21.0005C33.25 20.3143 32.6861 19.7505 32 19.7505H24ZM24 15.7505C23.3139 15.7505 22.75 16.3143 22.75 17.0005C22.7502 17.6865 23.314 18.2505 24 18.2505H28C28.686 18.2505 29.2498 17.6865 29.25 17.0005C29.25 16.3143 28.6861 15.7505 28 15.7505H24Z" fill="white" stroke="white"/>
</g>
<defs>
<clipPath id="clip0_1025_2658">
<rect width="56" height="32" rx="16" fill="white"/>
</clipPath>
</defs>
</svg>
