<svg width="56" height="32" viewBox="0 0 56 32" fill="none" xmlns="http://www.w3.org/2000/svg">
<g clip-path="url(#clip0_1025_47162)">
<rect width="56" height="32" rx="16" fill="#3F41D1"/>
<path d="M25.0967 7.31445C26.3498 6.34373 28.3348 6.23557 29.7236 7.02832L29.9932 7.19922L35.7539 11.2295C36.223 11.558 36.6668 12.0966 36.9941 12.7236C37.3216 13.3508 37.5097 14.0239 37.5098 14.5996V21.3799C37.5097 23.6535 35.6642 25.4998 33.3906 25.5H22.6104C20.338 25.5 18.4905 23.6452 18.4902 21.3701V14.4697L18.498 14.2646C18.5347 13.776 18.6981 13.2204 18.959 12.6904C19.257 12.0852 19.6615 11.5562 20.0879 11.2236L25.0967 7.31445ZM28 17.75C27.314 17.7501 26.75 18.3139 26.75 19V22C26.7502 22.6859 27.3141 23.2499 28 23.25C28.686 23.25 29.2498 22.686 29.25 22V19C29.25 18.3139 28.6861 17.75 28 17.75Z" fill="white" stroke="white"/>
</g>
<defs>
<clipPath id="clip0_1025_47162">
<rect width="56" height="32" rx="16" fill="white"/>
</clipPath>
</defs>
</svg>
