<svg width="56" height="32" viewBox="0 0 56 32" fill="none" xmlns="http://www.w3.org/2000/svg">
<g clip-path="url(#clip0_1025_25543)">
<rect width="56" height="32" fill="#3F41D1"/>
<path d="M32.8291 19.6402C33.4991 19.2002 34.3791 19.6802 34.3791 20.4802V21.7702C34.3791 23.0402 33.3891 24.4002 32.1991 24.8002L29.0091 25.8602C28.4491 26.0502 27.5391 26.0502 26.9891 25.8602L23.7991 24.8002C22.5991 24.4002 21.6191 23.0402 21.6191 21.7702V20.4702C21.6191 19.6802 22.4991 19.2002 23.1591 19.6302L25.2191 20.9702C26.0091 21.5002 27.0091 21.7602 28.0091 21.7602C29.0091 21.7602 30.0091 21.5002 30.7991 20.9702L32.8291 19.6402Z" fill="white"/>
<path d="M35.9795 10.4586L29.9895 6.52859C28.9095 5.81859 27.1295 5.81859 26.0495 6.52859L20.0295 10.4586C18.0995 11.7086 18.0995 14.5386 20.0295 15.7986L21.6295 16.8386L26.0495 19.7186C27.1295 20.4286 28.9095 20.4286 29.9895 19.7186L34.3795 16.8386L35.7495 15.9386V18.9986C35.7495 19.4086 36.0895 19.7486 36.4995 19.7486C36.9095 19.7486 37.2495 19.4086 37.2495 18.9986V14.0786C37.6495 12.7886 37.2395 11.2886 35.9795 10.4586Z" fill="white"/>
</g>
<defs>
<clipPath id="clip0_1025_25543">
<rect width="56" height="32" rx="16" fill="white"/>
</clipPath>
</defs>
</svg>
