<svg width="44" height="44" viewBox="0 0 44 44" fill="none" xmlns="http://www.w3.org/2000/svg">
<circle cx="22" cy="22" r="21" fill="#EAEBFA" stroke="#3F41D1" stroke-width="2"/>
<path d="M21.7738 8.89649C21.7025 8.89649 21.6326 8.912 21.5706 8.94769L10.4854 15.1342C10.4195 15.1712 10.3651 15.2256 10.3281 15.2915C10.2911 15.3574 10.2729 15.4322 10.2757 15.5077C10.2784 15.5832 10.3019 15.6565 10.3435 15.7195C10.3852 15.7826 10.4434 15.8329 10.5118 15.865L13.1497 17.0986V18.34H12.74C12.6312 18.3396 12.5267 18.3823 12.4493 18.4588C12.372 18.5352 12.3281 18.6393 12.3273 18.7481V22.4426C12.3273 22.6707 12.5119 22.8553 12.74 22.8553H14.3832C14.6098 22.8553 14.7913 22.6691 14.7913 22.4426V18.7496C14.7913 18.6412 14.7484 18.5373 14.6719 18.4605C14.5954 18.3837 14.4916 18.3404 14.3832 18.34H13.9705V17.4865L17.035 18.9187C17.1499 19.2073 17.3268 19.5099 17.5735 19.7877V19.9009C16.7914 19.9847 16.194 20.6783 16.194 21.5085C16.194 22.379 16.8488 23.1145 17.7255 23.1222C17.7612 23.1222 17.7876 23.1222 17.8217 23.1191C18.1104 23.9105 18.6364 24.5948 19.3067 25.082V25.9726L19.1857 25.8516C19.147 25.8128 19.1011 25.7822 19.0505 25.7614C18.9998 25.7406 18.9456 25.7301 18.8908 25.7306C18.7841 25.7325 18.6822 25.7759 18.6069 25.8516L17.468 26.989C15.4523 27.1612 13.3669 28.4832 12.4095 30.803C12.3428 30.9892 11.9192 31.9062 11.9192 33.3089V34.7613C11.9192 34.9879 12.1007 35.1725 12.3273 35.1725H31.2127C31.4392 35.1725 31.6223 34.9863 31.6223 34.7613V33.3089C31.6223 32.1762 31.343 31.3104 31.1118 30.7642C30.2041 28.5748 28.1683 27.1721 26.072 26.9874L24.9346 25.8516C24.8965 25.8132 24.8512 25.7827 24.8013 25.7619C24.7513 25.7411 24.6978 25.7303 24.6437 25.7303C24.5896 25.7303 24.536 25.7411 24.4861 25.7619C24.4361 25.7827 24.3908 25.8132 24.3527 25.8516L24.2348 25.9695V25.0804C24.9036 24.5948 25.4296 23.9089 25.7182 23.1191C25.7523 23.1222 25.7803 23.1238 25.816 23.1238C26.6725 23.1238 27.3475 22.3821 27.3475 21.5085C27.3475 20.6907 26.764 19.9878 25.9665 19.904L25.9696 19.7815C26.2008 19.5285 26.3885 19.2073 26.5049 18.9203L33.0281 15.8666C33.0962 15.8345 33.1542 15.7843 33.1957 15.7215C33.2372 15.6587 33.2607 15.5857 33.2636 15.5104C33.2665 15.4352 33.2486 15.3606 33.2121 15.2948C33.1755 15.229 33.1215 15.1745 33.0561 15.1373L21.9709 8.94614C21.9104 8.9133 21.8427 8.89622 21.7738 8.89649ZM21.7707 9.77939L31.9559 15.4585L26.733 17.9055C26.751 17.6671 26.7395 17.4273 26.6989 17.1917V14.8037C26.693 14.6255 26.6224 14.4556 26.5002 14.3258C26.3938 14.2104 26.2677 14.1148 26.1278 14.0434C25.7888 13.8742 25.4288 13.7511 25.0572 13.6772C24.1976 13.4801 23.0462 13.3638 21.7707 13.3638C20.4937 13.3638 19.3424 13.4801 18.4812 13.6772C18.1101 13.7512 17.7506 13.8744 17.4121 14.0434C17.2723 14.1148 17.1462 14.2104 17.0397 14.3258C16.9181 14.4558 16.848 14.6257 16.8426 14.8037V17.1855C16.8256 17.2755 16.7868 17.53 16.8101 17.9055L13.9705 16.5773V14.1287L21.7707 9.77939ZM24.8741 14.4763C25.1729 14.5368 25.4632 14.6337 25.7384 14.7649C25.816 14.8084 25.8594 14.8425 25.878 14.8611V16.3321C25.613 16.224 25.3388 16.1399 25.0587 16.0807C24.1976 15.8837 23.0462 15.7688 21.7692 15.7688C20.4937 15.7688 19.3424 15.8837 18.4828 16.0792C18.2036 16.1386 17.9301 16.2217 17.665 16.3274V14.8611C17.7069 14.8227 17.7539 14.7903 17.8047 14.7649C17.9754 14.6718 18.2779 14.5647 18.6643 14.4763C19.4355 14.301 20.5449 14.1861 21.7707 14.1861C22.9966 14.1861 24.1014 14.301 24.8741 14.4763ZM13.1481 14.588V16.1893L11.5856 15.4601L13.1481 14.588ZM24.8725 16.8798C25.2605 16.9683 25.5646 17.0785 25.7384 17.1716C25.7911 17.2026 25.861 17.246 25.878 17.2647C25.8798 17.2836 25.8834 17.3023 25.8889 17.3205C25.8982 17.3671 26.0797 18.4113 25.3768 19.2089H23.1455C22.1462 19.2089 21.3037 18.4641 21.1547 17.4928C21.1373 17.3923 21.0832 17.3019 21.0028 17.2391C20.9225 17.1763 20.8217 17.1456 20.72 17.1529C20.6183 17.1603 20.5229 17.2051 20.4524 17.2788C20.3819 17.3525 20.3414 17.4498 20.3386 17.5517C20.3337 17.9913 20.1562 18.4114 19.8445 18.7214C19.5328 19.0314 19.1117 19.2065 18.6721 19.2089H18.1631C17.4369 18.3555 17.6573 17.3267 17.6604 17.2724C17.7041 17.2323 17.7532 17.1983 17.8062 17.1716C17.9769 17.0785 18.2733 16.9714 18.6596 16.8845C19.4308 16.7076 20.5465 16.5897 21.7723 16.5897C22.9981 16.5897 24.1029 16.7045 24.8756 16.8798H24.8725ZM20.8149 18.7993C21.0731 19.1794 21.4206 19.4903 21.8269 19.7048C22.2333 19.9194 22.686 20.0309 23.1455 20.0297H25.1472V21.6792C25.1472 23.5412 23.6483 25.0494 21.7707 25.0494C21.3273 25.051 20.888 24.965 20.4779 24.7963C20.0678 24.6276 19.6951 24.3796 19.3812 24.0664C19.0673 23.7532 18.8184 23.3811 18.6488 22.9714C18.4791 22.5617 18.3921 22.1226 18.3928 21.6792V20.0297H18.669C19.6884 20.0297 20.4549 19.4261 20.8149 18.7993ZM13.1497 19.1592H13.9705V22.0329H13.1481L13.1497 19.1592ZM17.5719 20.7357V21.6807C17.5719 21.8886 17.5874 22.0935 17.6154 22.2921C17.3004 22.2409 17.0149 21.9243 17.0149 21.5085C17.0149 21.1252 17.2616 20.8056 17.5719 20.7357ZM25.9665 20.7357C26.2675 20.8087 26.5235 21.1128 26.5235 21.5085C26.5235 21.9243 26.2442 22.2378 25.9215 22.2905C25.9513 22.0886 25.9663 21.8848 25.9665 21.6807V20.7357ZM20.126 25.5397C20.6318 25.7539 21.1858 25.8702 21.7692 25.8702C22.3335 25.8724 22.8924 25.7605 23.4124 25.5413V26.7904L21.7676 28.4351L20.126 26.7919V25.5397ZM18.8924 26.7221L21.1889 29.0139L20.5387 29.6656L18.2453 27.3691L18.8924 26.7221ZM24.6413 26.7221L25.293 27.3738L23.0028 29.6672L22.348 29.0139L24.6413 26.7221ZM26.0177 27.8083C27.7633 27.979 29.391 29.0729 30.2382 30.8185C30.6105 31.5958 30.8025 32.4471 30.7999 33.3089V34.3517H27.9262V33.1212C27.9262 32.8884 27.74 32.7053 27.5088 32.7084C27.4552 32.7091 27.4023 32.7202 27.353 32.7413C27.3037 32.7624 27.2591 32.7929 27.2216 32.8313C27.1842 32.8696 27.1546 32.9149 27.1347 32.9647C27.1147 33.0144 27.1048 33.0676 27.1054 33.1212V34.3517H16.4345V33.1212C16.4345 32.8884 16.2483 32.7053 16.0156 32.7084C15.962 32.7091 15.9091 32.7202 15.8598 32.7413C15.8105 32.7624 15.7658 32.7929 15.7284 32.8313C15.6909 32.8696 15.6614 32.9149 15.6414 32.9647C15.6215 33.0144 15.6115 33.0676 15.6122 33.1212V34.3517H12.74V33.3089C12.74 32.5393 12.8859 31.8162 13.1543 31.1537C13.8774 29.3537 15.5361 28.0007 17.5223 27.8098L20.2486 30.5346C20.4099 30.6944 20.6675 30.6944 20.8289 30.5346L21.7707 29.5942L22.7126 30.5346C22.874 30.6944 23.1316 30.6944 23.2914 30.5346L26.0177 27.8083Z" fill="#3F41D1"/>
</svg>
